<?xml version="1.0" encoding="UTF-8"?><svg id="Layer_1" xmlns="http://www.w3.org/2000/svg" xmlns:xlink="http://www.w3.org/1999/xlink" viewBox="0 0 712.7784 998"><defs><style>.cls-1{fill:url(#linear-gradient);}.cls-1,.cls-2,.cls-3,.cls-4,.cls-5,.cls-6,.cls-7,.cls-8,.cls-9,.cls-10{stroke-width:0px;}.cls-2{fill:#312e60;}.cls-3{fill:url(#linear-gradient-6);}.cls-4{fill:#f4c271;}.cls-5{fill:url(#linear-gradient-5);}.cls-6{fill:#b74d04;opacity:.5;}.cls-7{fill:url(#linear-gradient-2);}.cls-8{fill:url(#linear-gradient-7);}.cls-9{fill:url(#linear-gradient-3);}.cls-10{fill:url(#linear-gradient-4);}</style><linearGradient id="linear-gradient" x1="319.9213" y1="690.5465" x2="319.9213" y2="998" gradientUnits="userSpaceOnUse"><stop offset="0" stop-color="#384476"/><stop offset=".5586" stop-color="#374274"/><stop offset=".7598" stop-color="#333e6d"/><stop offset=".9027" stop-color="#2e3761"/><stop offset="1" stop-color="#283054"/></linearGradient><linearGradient id="linear-gradient-2" x1="78.4305" y1="926.6289" x2="561.4122" y2="647.7793" gradientUnits="userSpaceOnUse"><stop offset="0" stop-color="#8297c5"/><stop offset=".5553" stop-color="#8398c6"/><stop offset=".7554" stop-color="#879dcd"/><stop offset=".8974" stop-color="#8fa6d9"/><stop offset="1" stop-color="#99b2e8"/></linearGradient><linearGradient id="linear-gradient-3" x1="320.4355" y1="736.8187" x2="320.4355" y2="966.1235" xlink:href="#linear-gradient"/><linearGradient id="linear-gradient-4" x1="319.9213" y1="759.4407" x2="319.9213" y2="962.0105" gradientUnits="userSpaceOnUse"><stop offset="0" stop-color="#312e60"/><stop offset="1" stop-color="#130c26"/></linearGradient><linearGradient id="linear-gradient-5" x1="319.9213" y1="616.5108" x2="319.9213" y2="696.7236" xlink:href="#linear-gradient"/><linearGradient id="linear-gradient-6" x1="186.471" y1="693.0443" x2="453.3717" y2="538.9491" xlink:href="#linear-gradient-2"/><linearGradient id="linear-gradient-7" x1="193.2239" y1="455.2874" x2="774.572" y2="119.6459" gradientUnits="userSpaceOnUse"><stop offset="0" stop-color="#d45b27"/><stop offset=".1062" stop-color="#e47826"/><stop offset=".2228" stop-color="#ea9337"/><stop offset=".2954" stop-color="#ea9b3b"/><stop offset=".4429" stop-color="#ebaa3f"/><stop offset=".6189" stop-color="#ea9b3b"/><stop offset=".6977" stop-color="#ea9337"/><stop offset=".8268" stop-color="#e47926"/><stop offset=".9749" stop-color="#e06c1f"/></linearGradient></defs><rect class="cls-1" y="690.5465" width="639.8427" height="307.4535" rx="48.9232" ry="48.9232"/><rect class="cls-7" x="22.7505" y="714.1967" width="594.3416" height="146.0147" rx="41.0311" ry="41.0311"/><rect class="cls-9" x="54.627" y="736.8187" width="531.617" height="229.3048" rx="40.0807" ry="40.0807"/><rect class="cls-10" x="94.2155" y="759.4407" width="451.4117" height="202.5697" rx="44.1025" ry="44.1025"/><path class="cls-5" d="M142.2872,690.5465c.1714-24.6785.3428-49.3571.5141-74.0356,43.6986,11.863,103.8428,23.4863,175.8346,23.6503,73.4489.1673,134.7111-11.649,178.9194-23.6503-.1714,24.6785-.3427,49.3571-.5141,74.0356-57.2939,3.9952-118.6205,6.3267-183.5467,6.1696-60.3365-.146-117.5223-2.4261-171.2074-6.1696Z"/><ellipse class="cls-3" cx="319.9213" cy="615.9967" rx="177.377" ry="24.1644"/><ellipse class="cls-2" cx="319.9213" cy="614.4543" rx="115.6807" ry="11.311"/><path class="cls-8" d="M707.0577,3.9085c30.4132,29.8889-69.4188,165.3878-88.7857,188.1102-7.078,8.3044-16.5999,20.9628-33.8564,28.4063-9.8868,4.2647-20.0805,7.813-30.0989,11.7782-9.5179,3.767-19.0016,7.6224-28.4582,11.5405-1.3324.552-2.426,1.6809-3.919,2.7495,5.0951,1.1471,41.7381-12.1396,71.1216-25.61-3.3675,4.4327-5.8947,7.8871-8.5537,11.2369-10.4226,13.1304-20.4605,26.599-31.4568,39.2319-10.7845,12.3895-24.1998,21.112-39.6776,27.3987-27.5889,11.2059-54.6525,23.7051-81.9235,35.6913-1.3703.6023-2.6243,1.4687-3.5629,3.1112,4.6591-1.767,9.3116-3.5515,13.9783-5.2981,23.4091-8.7612,46.8274-17.4979,70.2308-26.2739,10.2632-3.8486,19.0973-9.9253,26.9521-17.5006.913-.8807,1.8889-1.6962,3.6767-3.2931-12.3787,18.9627-24.1795,36.8795-35.8144,54.9034-14.8454,22.9973-29.0583,46.4253-44.5986,68.9396-3.8472,5.5737-11.2682,12.3491-21.1113,19.8572-15.2003,11.5944-28.7296,16.954-33.6573,18.7747-3.9257,1.4505-7.2919,2.4654-9.7334,3.1423,10.6161-1.5466,25.8665-5.3596,41.1318-15.467,4.5671-3.0239,8.5131-6.1992,11.8967-9.2972.3865.2856.7731.5713,1.1596.8569-3.2501,4.0991-5.9916,8.7731-9.8489,12.1858-10.1742,9.0011-23.3505,11.8375-35.7738,16.0975-11.522,3.9509-23.1211,7.6773-34.3557,12.5253,24.4115-2.7061,47.393-10.1804,69.8033-19.9694-10.8346,10.1199-23.1007,18.1928-36.4297,24.5381-13.3465,6.3534-26.9672,12.1306-40.3041,18.5421,25.2591-4.5808,49.4511-11.7631,70.7631-29.3674-11.4973,28.0186-35.2467,40.5519-59.1329,52.9348.2431.4505.4862.901.7292,1.3515,3.4336-1.3756,6.8746-2.733,10.2989-4.1315,3.8049-1.5538,7.6578-3.0108,11.3726-4.7585,3.527-1.6593,6.9028-3.6402,10.5637-5.5965.0486.5066.2856,1.0727.1002,1.3132-21.4958,27.8732-47.37,49.8747-81.6994,60.325-17.8425,5.4313-36.1127,7.6911-54.769,6.4915-2.0515-.132-10.8489-7.3849-3.5002-25.6308,4.1252-10.2426,9.5517-19.9552,14.2133-29.9895,4.9786-10.7167,9.783-21.5151,14.6008-32.3058,20.373-45.6315,44.8365-89.0218,71.7864-131.048,25.8294-40.2787,53.4631-79.2655,84.4211-115.784,13.7285-16.1944,27.9518-31.995,42.4607-47.4967,27.1888-29.0493,56.6398-55.7015,87.7533-80.4846,10.8484-8.6411,22.1789-16.6769,33.2884-24.9903,1.0497-.7856,2.0931-1.5799,2.6112-2.8389-171.6232,119.9984-293.6338,278.8531-369.5228,473.8268-26.9971-25.0011-33.07-120.3393-10.9176-161.5854,2.4009,8.5542,4.7955,17.5362,7.5139,26.419.597,1.9512,2.3453,3.5499,4.1207,5.1613-7.3909-23.3563-5.4325-46.022,3.5286-68.3351.3773,16.8946,3.6779,33.1174,10.1113,48.7826-1.1485-27.5941-8.1975-55.642,7.7605-83.0773-3.0937,29.4658,1.9842,56.4961,11.0099,82.9932-.9605-8.154-2.0073-16.2989-2.8651-24.4637-2.3314-22.1914-3.8204-44.4437-.4954-66.6191.7193-4.7967,3.5476-9.6933,6.5663-13.6597,16.3664-21.5045,32.9815-42.8232,49.7478-64.0187,9.5498-12.0725,19.5514-23.7877,30.1228-36.6011-3.172,8.2867-6.3755,15.2785-8.5,22.584-2.2341,7.6822-3.8658,15.6049-4.9658,23.5328-1.0673,7.6918-1.1256,15.5235-.8595,23.4171,6.3483-27.5922,12.3139-55.3287,28.0387-79.29,6.4914-9.8917,15.6428-18.0376,24.072-26.687-9.5271,26.3146-15.113,53.2207-17.152,80.8329.6533.127,1.3065.254,1.9598.3811,1.2952-7.4137,2.7114-14.8087,3.8631-22.2447,3.7066-23.9303,10.6891-46.8154,23.7999-67.264,4.2068-6.5612,10.7773-11.828,16.9266-16.884,48.0878-39.5382,83.9447-58.2162,83.9448-58.2163C634.0273,18.4503,691.6617-11.222,707.0577,3.9085Z"/><path class="cls-6" d="M620.9499,78.8103c.2308.4221.5274,1.1232.417,1.9315-.1428,1.0455-.8931,1.7351-2.4853,3.0654-1.7567,1.4679-2.6351,2.2019-3.0465,2.4716-3.0588,2.006-57.8323,48.0164-83.7324,72.0485-65.3885,60.6726-121.7954,143.6877-140.0415,170.5408-23.3333,34.3401-36.8922,58.2782-41.0798,65.7584-4.965,8.8688-10.3675,18.9145-38.0142,75.4152-28.184,57.5988-42.571,88.0354-45.4867,86.8731-.7543-.3007-.5352-2.6339-.2682-4.4069,2.311-5.852,5.7951-14.4674,10.2891-24.8031,5.5771-12.8267,9.7233-21.4351,15.7498-34.1725,13.8135-29.1959,13.3547-29.3155,19.1987-41.099,10.9676-22.1145,22.2245-42.6908,33.454-61.7347,13.849-23.9156,27.1611-44.82,39.0871-62.5394,15.048-22.3579,28.0655-39.9069,36.2706-50.6983,2.3654-3.1109,12.8888-16.9159,27.476-34.6611,12.511-15.2195,22.3463-26.4461,25.5791-30.1201,4.345-4.938,15.1293-17.1943,26.5062-29.0745,18.3469-19.1585,33.4159-32.3069,50.2406-46.9136,16.7846-14.5719,39.0203-33.0594,66.3236-53.6317.7358-.4356,1.872-1.2516,2.7676-2.6438.3689-.5736.6207-1.1264.7952-1.6059Z"/><path class="cls-4" d="M620.95,78.8103c-.0894.2694-.222.613-.4205.9924-.6306,1.2051-1.5032,1.8623-2.9124,2.9699-.7435.5843-1.4538,1.2123-2.2226,1.7628-2.4673,1.7666-54.7333,41.7106-94.4223,79.1706-20.4938,19.3428-34.2669,34.8452-47.3644,49.587-81.2204,91.4175-129.9987,178.4579-151.4435,219.8076-12.794,24.6694-22.6548,46.0435-29.6985,62.0796-5.4249,11.8077-10.8221,23.865-16.1768,36.171-.7986,1.8353-4.3784,10.0698-8.9615,20.9269-11.2953,26.7574-22.1502,53.963-28.6396,70.4025h-13.3675c6.3941-18.4794,15.1359-42.6347,26.3339-70.626,12.184-30.4561,23.0233-55.0342,28.2838-66.3087,29.4483-63.1148,62.2657-117.5102,94.4687-163.5327,41.524-58.6735,97.7885-124.987,173.1603-187.8608,24.9003-20.7714,49.5219-39.1953,73.3831-55.542Z"/></svg>